<svg width="24" height="24" viewBox="0 0 24 24" fill="none" xmlns="http://www.w3.org/2000/svg">
<path d="M19.0189 11.9999C19.02 13.6517 18.4382 15.2508 17.3759 16.5156C16.3136 17.7804 14.839 18.6297 13.2119 18.9139C11.5848 19.1982 9.90959 18.8991 8.4814 18.0693C7.05322 17.2395 5.96368 15.9324 5.40475 14.3781L1.39014 17.5897C2.63846 19.9627 4.64587 21.849 7.09184 22.9474C9.53782 24.0458 12.2813 24.2929 14.8842 23.6494C17.4871 23.0059 19.7994 21.5088 21.4517 19.3972C23.1041 17.2856 24.0013 14.6812 24 11.9999" fill="#00AC47"/>
<path d="M19.0188 11.9999C19.0179 13.1166 18.7502 14.2169 18.2379 15.2092C17.7257 16.2014 16.9838 17.0569 16.074 17.7044L20.0429 20.8795C21.2875 19.759 22.2828 18.3896 22.9645 16.86C23.6461 15.3303 23.9989 13.6746 24 11.9999" fill="#4285F4"/>
<path d="M4.98113 11.9999C4.98287 11.1886 5.12621 10.3838 5.40471 9.62178L1.3901 6.41015C0.477267 8.13196 0 10.0511 0 11.9999C0 13.9488 0.477267 15.8679 1.3901 17.5897L5.40471 14.3781C5.12621 13.6161 4.98287 12.8113 4.98113 11.9999Z" fill="#FFBA00"/>
<path d="M12 4.98111C13.4852 4.98153 14.9314 5.45614 16.128 6.33579L19.805 2.90399C18.4401 1.72715 16.827 0.873749 15.0861 0.407484C13.3452 -0.0587812 11.5215 -0.125874 9.75109 0.211213C7.98065 0.548299 6.30921 1.28086 4.86148 2.35423C3.41375 3.4276 2.22712 4.81406 1.39014 6.41015L5.40475 9.62179C5.89436 8.26454 6.79006 7.091 7.97008 6.2607C9.1501 5.4304 10.5572 4.98363 12 4.98111Z" fill="#EA4435"/>
<path d="M24 11.0943V11.9999L21.9623 15.1697H12.4529V10.1886H23.0944C23.3346 10.1886 23.5649 10.2841 23.7348 10.4539C23.9046 10.6237 24 10.8541 24 11.0943Z" fill="#4285F4"/>
</svg>
